<svg xmlns="http://www.w3.org/2000/svg" width="800" height="600"><style></style><rect class="boundary" x="0" y="0" fill="#000" width="800" height="600" data-type="pcb_background" data-pcb-layer="global"/><rect class="pcb-boundary" fill="none" stroke="#fff" stroke-width="0.3" x="100" y="60" width="600" height="480" data-type="pcb_boundary" data-pcb-layer="global"/><path class="pcb-board" d="M 100 540 L 700 540 L 700 240 L 520 240 L 520 60 L 100 180 Z" fill="none" stroke="rgba(255, 255, 255, 0.5)" stroke-width="6" data-type="pcb_board" data-pcb-layer="board"/><path class="pcb-copper-pour pcb-copper-pour-brep" d="M 688 528 L 112 528 L 112 189.0516 L 508 75.90876 L 508 228 L 508 252 L 532 252 L 688 252 L 688 528 Z M 484.85284 119.68776 L 493 111.54060000000001 L 493 95.79474000000002 L 468.07984 102.91476 L 484.85284 119.68776 Z M 442.42642 162.11418 L 474.24622 130.29438 L 451.58068000000003 107.62884 L 425.9488 114.9522 L 410.60662 130.29438 L 442.42642 162.11418 Z M 357.57358 162.11418 L 389.39338 130.29438 L 385.58398 126.48498000000001 L 336.08656 140.62716 L 357.57358 162.11418 Z M 400 204.5406 L 431.8198 172.7208 L 400 140.901 L 368.1802 172.7208 L 400 204.5406 Z M 484.85284 204.5406 L 493 196.39344 L 493 149.04816 L 484.85284 140.901 L 453.03298 172.7208 L 484.85284 204.5406 Z M 315.14716 204.5406 L 346.96702 172.7208 L 319.58734 145.34118 L 307.1548 148.89336 L 283.32736 172.7208 L 315.14716 204.5406 Z M 230.29438 204.5406 L 262.11418000000003 172.7208 L 253.59076 164.19737999999998 L 204.09328000000002 178.3395 L 230.29438 204.5406 Z M 187.86795999999998 246.96702 L 219.68776 215.14715999999999 L 187.86795999999998 183.32736 L 156.04815999999997 215.14715999999999 L 187.86795999999998 246.96702 Z M 272.7208 246.96702 L 304.54060000000004 215.14715999999999 L 272.7208 183.32736 L 240.901 215.14715999999999 L 272.7208 246.96702 Z M 357.57358 246.96702 L 389.39338 215.14715999999999 L 357.57358 183.32736 L 325.75378 215.14715999999999 L 357.57358 246.96702 Z M 442.42642 246.96702 L 474.24622 215.14715999999999 L 442.42642 183.32736 L 410.60662 215.14715999999999 L 442.42642 246.96702 Z M 145.44154 289.39338 L 177.26134 257.57358 L 145.44154 225.75378 L 127 244.19532 L 127 270.95184 L 145.44154 289.39338 Z M 230.29438 289.39338 L 262.11418000000003 257.57358 L 230.29438 225.75378 L 198.47457999999997 257.57358 L 230.29438 289.39338 Z M 315.14716 289.39338 L 346.96702 257.57358 L 315.14716 225.75378 L 283.32736 257.57358 L 315.14716 289.39338 Z M 400 289.39338 L 431.8198 257.57358 L 400 225.75378 L 368.1802 257.57358 L 400 289.39338 Z M 484.85284 289.39338 L 507.30688 266.93934 L 505.39528 266.77212 L 502.8697 266.09538 L 500.5 264.99036 L 498.35818 263.49066 L 496.50934 261.64182 L 495.00964 259.5 L 493.90462 257.1303 L 493.22788 254.60472 L 493 252 L 493 233.90094 L 484.85284 225.75378 L 453.03298 257.57358 L 484.85284 289.39338 Z M 569.70562 289.39338 L 592.0989999999999 267 L 547.31224 267 L 569.70562 289.39338 Z M 654.55846 289.39338 L 673 270.95184 L 673 267 L 632.16508 267 L 654.55846 289.39338 Z M 187.86795999999998 331.8198 L 219.68776 300 L 187.86795999999998 268.1802 L 156.04815999999997 300 L 187.86795999999998 331.8198 Z M 272.7208 331.8198 L 304.54060000000004 300 L 272.7208 268.1802 L 240.901 300 L 272.7208 331.8198 Z M 357.57358 331.8198 L 389.39338 300 L 357.57358 268.1802 L 325.75378 300 L 357.57358 331.8198 Z M 442.42642 331.8198 L 474.24622 300 L 442.42642 268.1802 L 410.60662 300 L 442.42642 331.8198 Z M 527.2792 331.8198 L 559.0989999999999 300 L 527.2792 268.1802 L 495.45939999999996 300 L 527.2792 331.8198 Z M 612.13204 331.8198 L 643.9518400000001 300 L 612.13204 268.1802 L 580.31224 300 L 612.13204 331.8198 Z M 145.44154 374.24622 L 177.26134 342.42642 L 145.44154 310.60662 L 127 329.04816 L 127 355.80468 L 145.44154 374.24622 Z M 230.29438 374.24622 L 262.11418000000003 342.42642 L 230.29438 310.60662 L 198.47457999999997 342.42642 L 230.29438 374.24622 Z M 315.14716 374.24622 L 346.96702 342.42642 L 315.14716 310.60662 L 283.32736 342.42642 L 315.14716 374.24622 Z M 400 374.24622 L 431.8198 342.42642 L 400 310.60662 L 368.1802 342.42642 L 400 374.24622 Z M 484.85284 374.24622 L 516.67264 342.42642 L 484.85284 310.60662 L 453.03298 342.42642 L 484.85284 374.24622 Z M 569.70562 374.24622 L 601.52542 342.42642 L 569.70562 310.60662 L 537.88582 342.42642 L 569.70562 374.24622 Z M 654.55846 374.24622 L 673 355.80468 L 673 329.04816 L 654.55846 310.60662 L 622.73866 342.42642 L 654.55846 374.24622 Z M 187.86795999999998 416.67264 L 219.68776 384.85284 L 187.86795999999998 353.03298 L 156.04815999999997 384.85284 L 187.86795999999998 416.67264 Z M 272.7208 416.67264 L 304.54060000000004 384.85284 L 272.7208 353.03298 L 240.901 384.85284 L 272.7208 416.67264 Z M 357.57358 416.67264 L 389.39338 384.85284 L 357.57358 353.03298 L 325.75378 384.85284 L 357.57358 416.67264 Z M 442.42642 416.67264 L 474.24622 384.85284 L 442.42642 353.03298 L 410.60662 384.85284 L 442.42642 416.67264 Z M 527.2792 416.67264 L 559.0989999999999 384.85284 L 527.2792 353.03298 L 495.45939999999996 384.85284 L 527.2792 416.67264 Z M 612.13204 416.67264 L 643.9518400000001 384.85284 L 612.13204 353.03298 L 580.31224 384.85284 L 612.13204 416.67264 Z M 145.44154 459.099 L 177.26134 427.2792 L 145.44154 395.45939999999996 L 127 413.90094 L 127 440.65746 L 145.44154 459.099 Z M 230.29438 459.099 L 262.11418000000003 427.2792 L 230.29438 395.45939999999996 L 198.47457999999997 427.2792 L 230.29438 459.099 Z M 315.14716 459.099 L 346.96702 427.2792 L 315.14716 395.45939999999996 L 283.32736 427.2792 L 315.14716 459.099 Z M 400 459.099 L 431.8198 427.2792 L 400 395.45939999999996 L 368.1802 427.2792 L 400 459.099 Z M 484.85284 459.099 L 516.67264 427.2792 L 484.85284 395.45939999999996 L 453.03298 427.2792 L 484.85284 459.099 Z M 569.70562 459.099 L 601.52542 427.2792 L 569.70562 395.45939999999996 L 537.88582 427.2792 L 569.70562 459.099 Z M 654.55846 459.099 L 673 440.65746 L 673 413.90094 L 654.55846 395.45939999999996 L 622.73866 427.2792 L 654.55846 459.099 Z M 187.86795999999998 501.52542000000005 L 219.68776 469.70562 L 187.86795999999998 437.88581999999997 L 156.04815999999997 469.70562 L 187.86795999999998 501.52542000000005 Z M 272.7208 501.52542000000005 L 304.54060000000004 469.70562 L 272.7208 437.88581999999997 L 240.901 469.70562 L 272.7208 501.52542000000005 Z M 357.57358 501.52542000000005 L 389.39338 469.70562 L 357.57358 437.88581999999997 L 325.75378 469.70562 L 357.57358 501.52542000000005 Z M 442.42642 501.52542000000005 L 474.24622 469.70562 L 442.42642 437.88581999999997 L 410.60662 469.70562 L 442.42642 501.52542000000005 Z M 527.2792 501.52542000000005 L 559.0989999999999 469.70562 L 527.2792 437.88581999999997 L 495.45939999999996 469.70562 L 527.2792 501.52542000000005 Z M 612.13204 501.52542000000005 L 643.9518400000001 469.70562 L 612.13204 437.88581999999997 L 580.31224 469.70562 L 612.13204 501.52542000000005 Z M 127 513 L 176.39338 513 L 177.26134 512.13204 L 145.44154 480.31224 L 127 498.75378 L 127 513 Z M 199.34253999999999 513 L 261.24622 513 L 262.11418000000003 512.13204 L 230.29438 480.31224 L 198.47457999999997 512.13204 L 199.34253999999999 513 Z M 284.19532000000004 513 L 346.09906 513 L 346.96702 512.13204 L 315.14716 480.31224 L 283.32736 512.13204 L 284.19532000000004 513 Z M 369.04816 513 L 430.95184 513 L 431.8198 512.13204 L 400 480.31224 L 368.1802 512.13204 L 369.04816 513 Z M 453.90094 513 L 515.80468 513 L 516.67264 512.13204 L 484.85284 480.31224 L 453.03298 512.13204 L 453.90094 513 Z M 538.75378 513 L 600.65746 513 L 601.52542 512.13204 L 569.70562 480.31224 L 537.88582 512.13204 L 538.75378 513 Z M 623.60662 513 L 673 513 L 673 498.75378 L 654.55846 480.31224 L 622.73866 512.13204 L 623.60662 513 Z" fill="rgb(200, 52, 52)" fill-rule="evenodd" fill-opacity="0.5" data-type="pcb_copper_pour" data-pcb-layer="top"/><text x="400" y="570" fill="rgb(89, 148, 220)" font-family="Arial, sans-serif" font-size="18" text-anchor="middle" dominant-baseline="central" class="pcb-note-text" data-type="pcb_note_text" data-pcb-note-text-id="label" data-pcb-layer="overlay">CLIPPED EDGES / 0.25mm SOLID RIM</text></svg>