<svg xmlns="http://www.w3.org/2000/svg" width="800" height="600"><style></style><rect class="boundary" x="0" y="0" fill="#000" width="800" height="600" data-type="pcb_background" data-pcb-layer="global"/><rect class="pcb-boundary" fill="none" stroke="#fff" stroke-width="0.3" x="50" y="50" width="700" height="500" data-type="pcb_boundary" data-pcb-layer="global"/><path class="pcb-board" d="M 50 550 L 750 550 L 750 50 L 50 50 Z" fill="none" stroke="rgba(255, 255, 255, 0.5)" stroke-width="5" data-type="pcb_board" data-pcb-layer="board"/><rect class="pcb-pad" fill="rgb(200, 52, 52)" x="163.750155" y="399.999165" width="27.99969" height="87.25027" rx="13.999845" ry="13.999845" data-type="pcb_smtpad" data-pcb-layer="top"/><rect class="pcb-pad" fill="rgb(200, 52, 52)" x="227.250155" y="399.999165" width="27.99969" height="87.25027" rx="13.999845" ry="13.999845" data-type="pcb_smtpad" data-pcb-layer="top"/><rect class="pcb-pad" fill="rgb(200, 52, 52)" x="290.750155" y="399.999165" width="27.99969" height="87.25027" rx="13.999845" ry="13.999845" data-type="pcb_smtpad" data-pcb-layer="top"/><rect class="pcb-pad" fill="rgb(200, 52, 52)" x="354.250155" y="399.999165" width="27.99969" height="87.25027" rx="13.999845" ry="13.999845" data-type="pcb_smtpad" data-pcb-layer="top"/><rect class="pcb-pad" fill="rgb(200, 52, 52)" x="417.750155" y="399.999165" width="27.99969" height="87.25027" rx="13.999845" ry="13.999845" data-type="pcb_smtpad" data-pcb-layer="top"/><rect class="pcb-pad" fill="rgb(200, 52, 52)" x="481.250155" y="399.999165" width="27.99969" height="87.25027" rx="13.999845" ry="13.999845" data-type="pcb_smtpad" data-pcb-layer="top"/><rect class="pcb-pad" fill="rgb(200, 52, 52)" x="544.750155" y="399.999165" width="27.99969" height="87.25027" rx="13.999845" ry="13.999845" data-type="pcb_smtpad" data-pcb-layer="top"/><rect class="pcb-pad" fill="rgb(200, 52, 52)" x="608.250155" y="399.999165" width="27.99969" height="87.25027" rx="13.999845" ry="13.999845" data-type="pcb_smtpad" data-pcb-layer="top"/><rect class="pcb-pad" fill="rgb(200, 52, 52)" x="163.750155" y="112.750565" width="27.99969" height="87.25027" rx="13.999845" ry="13.999845" data-type="pcb_smtpad" data-pcb-layer="top"/><rect class="pcb-pad" fill="rgb(200, 52, 52)" x="227.250155" y="112.750565" width="27.99969" height="87.25027" rx="13.999845" ry="13.999845" data-type="pcb_smtpad" data-pcb-layer="top"/><rect class="pcb-pad" fill="rgb(200, 52, 52)" x="290.750155" y="112.750565" width="27.99969" height="87.25027" rx="13.999845" ry="13.999845" data-type="pcb_smtpad" data-pcb-layer="top"/><rect class="pcb-pad" fill="rgb(200, 52, 52)" x="354.250155" y="112.750565" width="27.99969" height="87.25027" rx="13.999845" ry="13.999845" data-type="pcb_smtpad" data-pcb-layer="top"/><rect class="pcb-pad" fill="rgb(200, 52, 52)" x="417.750155" y="112.750565" width="27.99969" height="87.25027" rx="13.999845" ry="13.999845" data-type="pcb_smtpad" data-pcb-layer="top"/><rect class="pcb-pad" fill="rgb(200, 52, 52)" x="481.250155" y="112.750565" width="27.99969" height="87.25027" rx="13.999845" ry="13.999845" data-type="pcb_smtpad" data-pcb-layer="top"/><rect class="pcb-pad" fill="rgb(200, 52, 52)" x="544.750155" y="112.750565" width="27.99969" height="87.25027" rx="13.999845" ry="13.999845" data-type="pcb_smtpad" data-pcb-layer="top"/><rect class="pcb-pad" fill="rgb(200, 52, 52)" x="608.250155" y="112.750565" width="27.99969" height="87.25027" rx="13.999845" ry="13.999845" data-type="pcb_smtpad" data-pcb-layer="top"/><rect class="pcb-pad" fill="rgb(200, 52, 52)" x="-13.999845" y="-43.625135" width="27.99969" height="87.25027" rx="13.999845" ry="13.999845" data-type="pcb_smtpad" data-pcb-layer="top" transform="translate(400 300) rotate(-90)"/><path class="pcb-copper-pour pcb-copper-pour-brep" d="M 750 550 L 50 550 L 50 50 L 750 50 L 750 550 Z M 177.75 207.50085 L 181.94439999999997 207.08769999999998 L 185.97765 205.86425 L 189.69465 203.87745 L 192.95270000000002 201.2037 L 195.62645 197.94565 L 197.61325 194.2286 L 198.83675 190.1954 L 199.24984999999998 186.00099999999998 L 199.24984999999998 126.75039999999998 L 198.83675 122.55600000000001 L 197.61325 118.52279999999999 L 195.62645 114.80574999999999 L 192.95270000000002 111.54769999999999 L 189.69465 108.87395000000001 L 185.97765 106.88714999999999 L 181.94439999999997 105.6637 L 177.75 105.25055 L 173.5556 105.6637 L 169.52235 106.88714999999999 L 165.80534999999998 108.87395000000001 L 162.5473 111.54769999999999 L 159.87355000000002 114.80574999999999 L 157.88674999999998 118.52279999999999 L 156.66324999999998 122.55600000000001 L 156.25015000000002 126.75039999999998 L 156.25015000000002 186.00099999999998 L 156.66324999999998 190.1954 L 157.88674999999998 194.2286 L 159.87355000000002 197.94565 L 162.5473 201.2037 L 165.80534999999998 203.87745 L 169.52235 205.86425 L 173.5556 207.08769999999998 L 177.75 207.50085 Z M 241.25 207.50085 L 245.4444 207.08769999999998 L 249.47764999999998 205.86425 L 253.19465000000002 203.87745 L 256.4527 201.2037 L 259.12645 197.94565 L 261.11325 194.2286 L 262.33675 190.1954 L 262.74985000000004 186.00099999999998 L 262.74985000000004 126.75039999999998 L 262.33675 122.55600000000001 L 261.11325 118.52279999999999 L 259.12645 114.80574999999999 L 256.4527 111.54769999999999 L 253.19465000000002 108.87395000000001 L 249.47764999999998 106.88714999999999 L 245.4444 105.6637 L 241.25 105.25055 L 237.0556 105.6637 L 233.02235 106.88714999999999 L 229.30535 108.87395000000001 L 226.0473 111.54769999999999 L 223.37355000000002 114.80574999999999 L 221.38675 118.52279999999999 L 220.16325 122.55600000000001 L 219.75015 126.75039999999998 L 219.75015 186.00099999999998 L 220.16325 190.1954 L 221.38675 194.2286 L 223.37355000000002 197.94565 L 226.0473 201.2037 L 229.30535 203.87745 L 233.02235 205.86425 L 237.0556 207.08769999999998 L 241.25 207.50085 Z M 304.75 207.50085 L 308.9444 207.08769999999998 L 312.97765 205.86425 L 316.69465 203.87745 L 319.9527 201.2037 L 322.62645 197.94565 L 324.61325 194.2286 L 325.83675 190.1954 L 326.24985 186.00099999999998 L 326.24985 126.75039999999998 L 325.83675 122.55600000000001 L 324.61325 118.52279999999999 L 322.62645 114.80574999999999 L 319.9527 111.54769999999999 L 316.69465 108.87395000000001 L 312.97765 106.88714999999999 L 308.9444 105.6637 L 304.75 105.25055 L 300.5556 105.6637 L 296.52235 106.88714999999999 L 292.80535 108.87395000000001 L 289.5473 111.54769999999999 L 286.87355 114.80574999999999 L 284.88675 118.52279999999999 L 283.66325 122.55600000000001 L 283.25015 126.75039999999998 L 283.25015 186.00099999999998 L 283.66325 190.1954 L 284.88675 194.2286 L 286.87355 197.94565 L 289.5473 201.2037 L 292.80535 203.87745 L 296.52235 205.86425 L 300.5556 207.08769999999998 L 304.75 207.50085 Z M 368.25 207.50085 L 372.4444 207.08769999999998 L 376.47765 205.86425 L 380.19465 203.87745 L 383.4527 201.2037 L 386.12645 197.94565 L 388.11325 194.2286 L 389.33675 190.1954 L 389.74985 186.00099999999998 L 389.74985 126.75039999999998 L 389.33675 122.55600000000001 L 388.11325 118.52279999999999 L 386.12645 114.80574999999999 L 383.4527 111.54769999999999 L 380.19465 108.87395000000001 L 376.47765 106.88714999999999 L 372.4444 105.6637 L 368.25 105.25055 L 364.0556 105.6637 L 360.02235 106.88714999999999 L 356.30535 108.87395000000001 L 353.0473 111.54769999999999 L 350.37355 114.80574999999999 L 348.38675 118.52279999999999 L 347.16325 122.55600000000001 L 346.75015 126.75039999999998 L 346.75015 186.00099999999998 L 347.16325 190.1954 L 348.38675 194.2286 L 350.37355 197.94565 L 353.0473 201.2037 L 356.30535 203.87745 L 360.02235 205.86425 L 364.0556 207.08769999999998 L 368.25 207.50085 Z M 431.75 207.50085 L 435.9444 207.08769999999998 L 439.97765 205.86425 L 443.69465 203.87745 L 446.9527 201.2037 L 449.62645 197.94565 L 451.61325 194.2286 L 452.83675 190.1954 L 453.24985 186.00099999999998 L 453.24985 126.75039999999998 L 452.83675 122.55600000000001 L 451.61325 118.52279999999999 L 449.62645 114.80574999999999 L 446.9527 111.54769999999999 L 443.69465 108.87395000000001 L 439.97765 106.88714999999999 L 435.9444 105.6637 L 431.75 105.25055 L 427.5556 105.6637 L 423.52235 106.88714999999999 L 419.80535 108.87395000000001 L 416.5473 111.54769999999999 L 413.87355 114.80574999999999 L 411.88675 118.52279999999999 L 410.66325 122.55600000000001 L 410.25015 126.75039999999998 L 410.25015 186.00099999999998 L 410.66325 190.1954 L 411.88675 194.2286 L 413.87355 197.94565 L 416.5473 201.2037 L 419.80535 203.87745 L 423.52235 205.86425 L 427.5556 207.08769999999998 L 431.75 207.50085 Z M 495.25 207.50085 L 499.4444 207.08769999999998 L 503.47765 205.86425 L 507.19465 203.87745 L 510.4527 201.2037 L 513.12645 197.94565 L 515.11325 194.2286 L 516.33675 190.1954 L 516.74985 186.00099999999998 L 516.74985 126.75039999999998 L 516.33675 122.55600000000001 L 515.11325 118.52279999999999 L 513.12645 114.80574999999999 L 510.4527 111.54769999999999 L 507.19465 108.87395000000001 L 503.47765 106.88714999999999 L 499.4444 105.6637 L 495.25 105.25055 L 491.0556 105.6637 L 487.02235 106.88714999999999 L 483.30535 108.87395000000001 L 480.0473 111.54769999999999 L 477.37355 114.80574999999999 L 475.38675 118.52279999999999 L 474.16325 122.55600000000001 L 473.75015 126.75039999999998 L 473.75015 186.00099999999998 L 474.16325 190.1954 L 475.38675 194.2286 L 477.37355 197.94565 L 480.0473 201.2037 L 483.30535 203.87745 L 487.02235 205.86425 L 491.0556 207.08769999999998 L 495.25 207.50085 Z M 558.75 207.50085 L 562.9444 207.08769999999998 L 566.97765 205.86425 L 570.69465 203.87745 L 573.9527 201.2037 L 576.62645 197.94565 L 578.61325 194.2286 L 579.8367499999999 190.1954 L 580.24985 186.00099999999998 L 580.24985 126.75039999999998 L 579.8367499999999 122.55600000000001 L 578.61325 118.52279999999999 L 576.62645 114.80574999999999 L 573.9527 111.54769999999999 L 570.69465 108.87395000000001 L 566.97765 106.88714999999999 L 562.9444 105.6637 L 558.75 105.25055 L 554.5556 105.6637 L 550.52235 106.88714999999999 L 546.80535 108.87395000000001 L 543.5473 111.54769999999999 L 540.87355 114.80574999999999 L 538.88675 118.52279999999999 L 537.6632500000001 122.55600000000001 L 537.25015 126.75039999999998 L 537.25015 186.00099999999998 L 537.6632500000001 190.1954 L 538.88675 194.2286 L 540.87355 197.94565 L 543.5473 201.2037 L 546.80535 203.87745 L 550.52235 205.86425 L 554.5556 207.08769999999998 L 558.75 207.50085 Z M 622.25 207.50085 L 626.4444 207.08769999999998 L 630.47765 205.86425 L 634.19465 203.87745 L 637.4527 201.2037 L 640.12645 197.94565 L 642.11325 194.2286 L 643.33675 190.1954 L 643.7498499999999 186.00099999999998 L 643.7498499999999 126.75039999999998 L 643.33675 122.55600000000001 L 642.11325 118.52279999999999 L 640.12645 114.80574999999999 L 637.4527 111.54769999999999 L 634.19465 108.87395000000001 L 630.47765 106.88714999999999 L 626.4444 105.6637 L 622.25 105.25055 L 618.0556 105.6637 L 614.02235 106.88714999999999 L 610.30535 108.87395000000001 L 607.0473 111.54769999999999 L 604.37355 114.80574999999999 L 602.38675 118.52279999999999 L 601.1632500000001 122.55600000000001 L 600.7501500000001 126.75039999999998 L 600.7501500000001 186.00099999999998 L 601.1632500000001 190.1954 L 602.38675 194.2286 L 604.37355 197.94565 L 607.0473 201.2037 L 610.30535 203.87745 L 614.02235 205.86425 L 618.0556 207.08769999999998 L 622.25 207.50085 Z M 370.3747 321.49985 L 429.6253 321.49985 L 433.8197 321.08675 L 437.8529 319.86325 L 441.56995 317.87645 L 444.828 315.2027 L 447.50175 311.94465 L 449.48855 308.22765 L 450.712 304.1944 L 451.12515 300 L 450.712 295.8056 L 449.48855 291.77235 L 447.50175 288.05535 L 444.828 284.7973 L 441.56995 282.12355 L 437.8529 280.13675 L 433.8197 278.91325 L 429.6253 278.50015 L 370.3747 278.50015 L 366.1803 278.91325 L 362.1471 280.13675 L 358.43005 282.12355 L 355.172 284.7973 L 352.49825 288.05535 L 350.51145 291.77235 L 349.288 295.8056 L 348.87485 300 L 349.288 304.1944 L 350.51145 308.22765 L 352.49825 311.94465 L 355.172 315.2027 L 358.43005 317.87645 L 362.1471 319.86325 L 366.1803 321.08675 L 370.3747 321.49985 Z M 177.75 494.74945 L 181.94439999999997 494.3363 L 185.97765 493.11285 L 189.69465 491.12604999999996 L 192.95270000000002 488.45230000000004 L 195.62645 485.19425 L 197.61325 481.47720000000004 L 198.83675 477.44399999999996 L 199.24984999999998 473.2496 L 199.24984999999998 413.999 L 198.83675 409.8046 L 197.61325 405.77139999999997 L 195.62645 402.05435 L 192.95270000000002 398.7963 L 189.69465 396.12255 L 185.97765 394.13575000000003 L 181.94439999999997 392.9123 L 177.75 392.49915 L 173.5556 392.9123 L 169.52235 394.13575000000003 L 165.80534999999998 396.12255 L 162.5473 398.7963 L 159.87355000000002 402.05435 L 157.88674999999998 405.77139999999997 L 156.66324999999998 409.8046 L 156.25015000000002 413.999 L 156.25015000000002 473.2496 L 156.66324999999998 477.44399999999996 L 157.88674999999998 481.47720000000004 L 159.87355000000002 485.19425 L 162.5473 488.45230000000004 L 165.80534999999998 491.12604999999996 L 169.52235 493.11285 L 173.5556 494.3363 L 177.75 494.74945 Z M 241.25 494.74945 L 245.4444 494.3363 L 249.47764999999998 493.11285 L 253.19465000000002 491.12604999999996 L 256.4527 488.45230000000004 L 259.12645 485.19425 L 261.11325 481.47720000000004 L 262.33675 477.44399999999996 L 262.74985000000004 473.2496 L 262.74985000000004 413.999 L 262.33675 409.8046 L 261.11325 405.77139999999997 L 259.12645 402.05435 L 256.4527 398.7963 L 253.19465000000002 396.12255 L 249.47764999999998 394.13575000000003 L 245.4444 392.9123 L 241.25 392.49915 L 237.0556 392.9123 L 233.02235 394.13575000000003 L 229.30535 396.12255 L 226.0473 398.7963 L 223.37355000000002 402.05435 L 221.38675 405.77139999999997 L 220.16325 409.8046 L 219.75015 413.999 L 219.75015 473.2496 L 220.16325 477.44399999999996 L 221.38675 481.47720000000004 L 223.37355000000002 485.19425 L 226.0473 488.45230000000004 L 229.30535 491.12604999999996 L 233.02235 493.11285 L 237.0556 494.3363 L 241.25 494.74945 Z M 304.75 494.74945 L 308.9444 494.3363 L 312.97765 493.11285 L 316.69465 491.12604999999996 L 319.9527 488.45230000000004 L 322.62645 485.19425 L 324.61325 481.47720000000004 L 325.83675 477.44399999999996 L 326.24985 473.2496 L 326.24985 413.999 L 325.83675 409.8046 L 324.61325 405.77139999999997 L 322.62645 402.05435 L 319.9527 398.7963 L 316.69465 396.12255 L 312.97765 394.13575000000003 L 308.9444 392.9123 L 304.75 392.49915 L 300.5556 392.9123 L 296.52235 394.13575000000003 L 292.80535 396.12255 L 289.5473 398.7963 L 286.87355 402.05435 L 284.88675 405.77139999999997 L 283.66325 409.8046 L 283.25015 413.999 L 283.25015 473.2496 L 283.66325 477.44399999999996 L 284.88675 481.47720000000004 L 286.87355 485.19425 L 289.5473 488.45230000000004 L 292.80535 491.12604999999996 L 296.52235 493.11285 L 300.5556 494.3363 L 304.75 494.74945 Z M 368.25 494.74945 L 372.4444 494.3363 L 376.47765 493.11285 L 380.19465 491.12604999999996 L 383.4527 488.45230000000004 L 386.12645 485.19425 L 388.11325 481.47720000000004 L 389.33675 477.44399999999996 L 389.74985 473.2496 L 389.74985 413.999 L 389.33675 409.8046 L 388.11325 405.77139999999997 L 386.12645 402.05435 L 383.4527 398.7963 L 380.19465 396.12255 L 376.47765 394.13575000000003 L 372.4444 392.9123 L 368.25 392.49915 L 364.0556 392.9123 L 360.02235 394.13575000000003 L 356.30535 396.12255 L 353.0473 398.7963 L 350.37355 402.05435 L 348.38675 405.77139999999997 L 347.16325 409.8046 L 346.75015 413.999 L 346.75015 473.2496 L 347.16325 477.44399999999996 L 348.38675 481.47720000000004 L 350.37355 485.19425 L 353.0473 488.45230000000004 L 356.30535 491.12604999999996 L 360.02235 493.11285 L 364.0556 494.3363 L 368.25 494.74945 Z M 431.75 494.74945 L 435.9444 494.3363 L 439.97765 493.11285 L 443.69465 491.12604999999996 L 446.9527 488.45230000000004 L 449.62645 485.19425 L 451.61325 481.47720000000004 L 452.83675 477.44399999999996 L 453.24985 473.2496 L 453.24985 413.999 L 452.83675 409.8046 L 451.61325 405.77139999999997 L 449.62645 402.05435 L 446.9527 398.7963 L 443.69465 396.12255 L 439.97765 394.13575000000003 L 435.9444 392.9123 L 431.75 392.49915 L 427.5556 392.9123 L 423.52235 394.13575000000003 L 419.80535 396.12255 L 416.5473 398.7963 L 413.87355 402.05435 L 411.88675 405.77139999999997 L 410.66325 409.8046 L 410.25015 413.999 L 410.25015 473.2496 L 410.66325 477.44399999999996 L 411.88675 481.47720000000004 L 413.87355 485.19425 L 416.5473 488.45230000000004 L 419.80535 491.12604999999996 L 423.52235 493.11285 L 427.5556 494.3363 L 431.75 494.74945 Z M 495.25 494.74945 L 499.4444 494.3363 L 503.47765 493.11285 L 507.19465 491.12604999999996 L 510.4527 488.45230000000004 L 513.12645 485.19425 L 515.11325 481.47720000000004 L 516.33675 477.44399999999996 L 516.74985 473.2496 L 516.74985 413.999 L 516.33675 409.8046 L 515.11325 405.77139999999997 L 513.12645 402.05435 L 510.4527 398.7963 L 507.19465 396.12255 L 503.47765 394.13575000000003 L 499.4444 392.9123 L 495.25 392.49915 L 491.0556 392.9123 L 487.02235 394.13575000000003 L 483.30535 396.12255 L 480.0473 398.7963 L 477.37355 402.05435 L 475.38675 405.77139999999997 L 474.16325 409.8046 L 473.75015 413.999 L 473.75015 473.2496 L 474.16325 477.44399999999996 L 475.38675 481.47720000000004 L 477.37355 485.19425 L 480.0473 488.45230000000004 L 483.30535 491.12604999999996 L 487.02235 493.11285 L 491.0556 494.3363 L 495.25 494.74945 Z M 558.75 494.74945 L 562.9444 494.3363 L 566.97765 493.11285 L 570.69465 491.12604999999996 L 573.9527 488.45230000000004 L 576.62645 485.19425 L 578.61325 481.47720000000004 L 579.8367499999999 477.44399999999996 L 580.24985 473.2496 L 580.24985 413.999 L 579.8367499999999 409.8046 L 578.61325 405.77139999999997 L 576.62645 402.05435 L 573.9527 398.7963 L 570.69465 396.12255 L 566.97765 394.13575000000003 L 562.9444 392.9123 L 558.75 392.49915 L 554.5556 392.9123 L 550.52235 394.13575000000003 L 546.80535 396.12255 L 543.5473 398.7963 L 540.87355 402.05435 L 538.88675 405.77139999999997 L 537.6632500000001 409.8046 L 537.25015 413.999 L 537.25015 473.2496 L 537.6632500000001 477.44399999999996 L 538.88675 481.47720000000004 L 540.87355 485.19425 L 543.5473 488.45230000000004 L 546.80535 491.12604999999996 L 550.52235 493.11285 L 554.5556 494.3363 L 558.75 494.74945 Z M 622.25 494.74945 L 626.4444 494.3363 L 630.47765 493.11285 L 634.19465 491.12604999999996 L 637.4527 488.45230000000004 L 640.12645 485.19425 L 642.11325 481.47720000000004 L 643.33675 477.44399999999996 L 643.7498499999999 473.2496 L 643.7498499999999 413.999 L 643.33675 409.8046 L 642.11325 405.77139999999997 L 640.12645 402.05435 L 637.4527 398.7963 L 634.19465 396.12255 L 630.47765 394.13575000000003 L 626.4444 392.9123 L 622.25 392.49915 L 618.0556 392.9123 L 614.02235 394.13575000000003 L 610.30535 396.12255 L 607.0473 398.7963 L 604.37355 402.05435 L 602.38675 405.77139999999997 L 601.1632500000001 409.8046 L 600.7501500000001 413.999 L 600.7501500000001 473.2496 L 601.1632500000001 477.44399999999996 L 602.38675 481.47720000000004 L 604.37355 485.19425 L 607.0473 488.45230000000004 L 610.30535 491.12604999999996 L 614.02235 493.11285 L 618.0556 494.3363 L 622.25 494.74945 Z" fill="rgb(200, 52, 52)" fill-rule="evenodd" fill-opacity="0.5" data-type="pcb_copper_pour" data-pcb-layer="top"/></svg>