<svg xmlns="http://www.w3.org/2000/svg" width="800" height="600" data-software-used-string="@tscircuit/core@0.0.849"><style></style><rect class="boundary" x="0" y="0" fill="#000" width="800" height="600" data-type="pcb_background" data-pcb-layer="global"/><rect class="pcb-boundary" fill="none" stroke="#fff" stroke-width="0.3" x="150" y="50" width="500" height="500" data-type="pcb_boundary" data-pcb-layer="global"/><rect class="pcb-pad" fill="rgb(77, 127, 196)" x="284" y="284" width="27" height="32" data-type="pcb_smtpad" data-pcb-layer="bottom"/><rect class="pcb-pad" fill="rgb(77, 127, 196)" x="233" y="284" width="27" height="32" data-type="pcb_smtpad" data-pcb-layer="bottom"/><path class="pcb-trace" stroke="rgb(77, 127, 196)" fill="none" d="M 297.5 300 L 297.5 379.512341162088" stroke-width="7.5" stroke-linecap="round" stroke-linejoin="round" shape-rendering="crispEdges" data-type="pcb_trace" data-pcb-layer="bottom"/><path class="pcb-trace" stroke="rgb(77, 127, 196)" fill="none" d="M 297.5 379.512341162088 L 303.1454224777405 385.1577636398285" stroke-width="7.5" stroke-linecap="round" stroke-linejoin="round" shape-rendering="crispEdges" data-type="pcb_trace" data-pcb-layer="bottom"/><path class="pcb-trace" stroke="rgb(77, 127, 196)" fill="none" d="M 303.1454224777405 385.1577636398285 L 306.25 393.75" stroke-width="7.5" stroke-linecap="round" stroke-linejoin="round" shape-rendering="crispEdges" data-type="pcb_trace" data-pcb-layer="bottom"/><path class="pcb-trace" stroke="rgb(77, 127, 196)" fill="none" d="M 306.25 393.75 L 306.25 393.75" stroke-width="7.5" stroke-linecap="round" stroke-linejoin="round" shape-rendering="crispEdges" data-type="pcb_trace" data-pcb-layer="bottom"/><path class="pcb-silkscreen pcb-silkscreen-bottom" d="M 246.5 264 L 321 264 L 321 336 L 246.5 336" fill="none" stroke="#5da9e9" stroke-width="5" stroke-linecap="round" stroke-linejoin="round" data-pcb-component-id="pcb_component_1" data-pcb-silkscreen-path-id="pcb_silkscreen_path_1" data-type="pcb_silkscreen_path" data-pcb-layer="bottom"/><text x="0" y="0" dx="0" dy="0" fill="#5da9e9" font-family="Arial, sans-serif" font-size="20" text-anchor="middle" dominant-baseline="central" transform="matrix(-1,0,0,1,272,239)" class="pcb-silkscreen-text pcb-silkscreen-bottom" data-pcb-silkscreen-text-id="pcb_component_1" stroke="none" data-type="pcb_silkscreen_text" data-pcb-layer="bottom">C1</text><path class="pcb-board" d="M 150 550 L 650 550 L 650 50 L 150 50 Z" fill="none" stroke="rgba(255, 255, 255, 0.5)" stroke-width="5" data-type="pcb_board" data-pcb-layer="board"/><rect class="pcb-pad" fill="rgb(200, 52, 52)" x="361" y="284" width="27" height="32" data-type="pcb_smtpad" data-pcb-layer="top"/><rect class="pcb-pad" fill="rgb(200, 52, 52)" x="412" y="284" width="27" height="32" data-type="pcb_smtpad" data-pcb-layer="top"/><path class="pcb-trace" stroke="rgb(200, 52, 52)" fill="none" d="M 306.25 393.75 L 306.25 393.75" stroke-width="7.5" stroke-linecap="round" stroke-linejoin="round" shape-rendering="crispEdges" data-type="pcb_trace" data-pcb-layer="top"/><path class="pcb-trace" stroke="rgb(200, 52, 52)" fill="none" d="M 306.25 393.75 L 306.25 368.25" stroke-width="7.5" stroke-linecap="round" stroke-linejoin="round" shape-rendering="crispEdges" data-type="pcb_trace" data-pcb-layer="top"/><path class="pcb-trace" stroke="rgb(200, 52, 52)" fill="none" d="M 306.25 368.25 L 374.5 300" stroke-width="7.5" stroke-linecap="round" stroke-linejoin="round" shape-rendering="crispEdges" data-type="pcb_trace" data-pcb-layer="top"/><path class="pcb-copper-pour pcb-copper-pour-brep" d="M 650 550 L 150 550 L 150 50 L 650 50 L 650 550 Z M 306.25 418.75 L 311.12725 418.26965 L 315.8171 416.847 L 320.13925 414.53675 L 323.92764999999997 411.42764999999997 L 327.03675 407.63925 L 329.347 403.3171 L 330.76965 398.62725 L 331.25 393.75 L 330.76965 388.87275 L 329.347 384.1829 L 327.03675 379.86075 L 323.92764999999997 376.07235000000003 L 320.13925 372.96325 L 316.08055 370.79385 L 360.8744 326 L 398 326 L 398 274 L 351 274 L 351 311.1256 L 300.0628 362.0628 L 298.97465 363.38875 L 298.16605 364.9015 L 297.66814999999997 366.54295 L 297.5 368.25 L 297.5 370.40515 L 296.6829 370.653 L 292.36075 372.96325 L 288.57235000000003 376.07235000000003 L 285.46325 379.86075 L 283.153 384.1829 L 281.73035 388.87275 L 281.25 393.75 L 281.73035 398.62725 L 283.153 403.3171 L 285.46325 407.63925 L 288.57235000000003 411.42764999999997 L 292.36075 414.53675 L 296.6829 416.847 L 301.37275 418.26965 L 306.25 418.75 Z" fill="rgb(200, 52, 52)" fill-rule="evenodd" fill-opacity="0.5" data-type="pcb_copper_pour" data-pcb-layer="top"/><path class="pcb-silkscreen pcb-silkscreen-top" d="M 425.5 264 L 351 264 L 351 336 L 425.5 336" fill="none" stroke="#f2eda1" stroke-width="5" stroke-linecap="round" stroke-linejoin="round" data-pcb-component-id="pcb_component_0" data-pcb-silkscreen-path-id="pcb_silkscreen_path_0" data-type="pcb_silkscreen_path" data-pcb-layer="top"/><text x="0" y="0" dx="0" dy="0" fill="#f2eda1" font-family="Arial, sans-serif" font-size="20" text-anchor="middle" dominant-baseline="central" transform="matrix(1,0,0,1,400,239)" class="pcb-silkscreen-text pcb-silkscreen-top" data-pcb-silkscreen-text-id="pcb_component_0" stroke="none" data-type="pcb_silkscreen_text" data-pcb-layer="top">R1</text><g data-type="pcb_via" data-pcb-layer="through"><circle class="pcb-hole-outer" fill="rgb(200, 52, 52)" cx="306.25" cy="393.75" r="15" data-type="pcb_via" data-pcb-layer="top"/><circle class="pcb-hole-inner" fill="#FF26E2" cx="306.25" cy="393.75" r="7.5" data-type="pcb_via" data-pcb-layer="drill"/></g></svg>